<?xml version="1.0" encoding="UTF-8"?>
<svg id="Layer_2" data-name="Layer 2" xmlns="http://www.w3.org/2000/svg" viewBox="0 0 362 349.1">
  <defs>
    <style>
      .cls-1 {
        fill: #e2a343;
      }

      .cls-2 {
        fill: #301112;
      }
    </style>
  </defs>
  <g id="Layer_1-2" data-name="Layer 1">
    <rect class="cls-1" x="0" y="0" width="362" height="349.1" rx="174.55" ry="174.55"/>
    <g>
      <path class="cls-2" d="M172.24,80.18c3.74-2.08,7.33-4.52,11.25-6.17,26.12-10.97,51.94-10.88,76.4,4.22,22.82,14.08,25.13,41.1,12.55,60.91-7.73,12.17-18.91,20.67-30.56,28.65-16.92,11.59-32.17,24.98-44.84,41.17-13.1,16.75-22.21,35.29-24.97,56.63-.75,5.83-1.53,11.67-2.6,17.45-.38,2.07-1.5,4.07-2.59,5.92-1.83,3.12-4.48,4.39-8.33,4.83-7.56,.85-11.85-2.89-15.24-8.74-5.49-9.48-8.57-19.91-11.78-30.28-2.01-6.5-4.02-13-6.24-20.17,2.54,0,4.84,0,7.14,0,3,0,6.01,.11,9-.03,2-.1,3,.65,3.56,2.56,2.13,7.13,4.36,14.23,6.6,21.34,.57,1.82,1.29,3.6,2.55,5.31,.82-4.19,1.47-8.42,2.48-12.55,6.27-25.59,20.3-46.61,38.51-65.14,12.99-13.21,27.83-24.02,43.52-33.76,8.02-4.98,15.51-10.69,21.39-18.22,14.42-18.43,9.66-40.52-10.67-52.1-22.52-12.83-53.31-13.11-76.63-1.08-.18-.24-.35-.49-.53-.73Z"/>
      <path class="cls-2" d="M70.49,112.16c-1.17,8.06,4.22,14.43,14.06,16.32-.16-2.91-.38-5.74-.47-8.58-.24-7.35-.22-14.65,2.05-21.8,3.92-12.35,12.7-17.83,25.25-14.57,5.71,1.48,11.28,4.11,16.42,7.07,19.97,11.5,41.55,17.24,64.37,18.57,8.65,.51,17.37,.46,26.03,.03,4.23-.21,8.59-1.38,12.53-3.01,5.15-2.13,5.61-7.98,.97-11.08-3.11-2.07-6.77-3.31-10.59-5.11,5.35,.28,10.11,1.24,13.92,4.71,4.14,3.78,3.91,9.79-.34,13.7-4.06,3.73-9.22,5.19-14.4,6.03-27.68,4.46-55.06,3.71-81.67-6.01-7.55-2.76-14.75-6.48-22.19-9.57-2.93-1.22-6.03-2.24-9.15-2.76-4.01-.67-6.33,.73-7.06,4.73-.91,5.04-1.43,10.24-1.33,15.35,.1,5.03,1.1,10.06,1.93,15.06,.16,.96,1.27,2.42,2.07,2.5,12.62,1.36,25.27,2.54,37.91,3.76,.08,0,.17-.1,.41-.23,.33-1.84,.06-4.81,1.18-5.49,1.68-1.02,4.34-.44,7.08-.56,0,5.46,.04,10.59-.07,15.72-.01,.48-1,1.22-1.63,1.34-1.2,.22-2.48,.01-3.71,.1-1.95,.14-2.44-.81-2.47-2.6-.08-4.23-.16-4.15-4.37-4.47-18.26-1.36-36.55-2.78-54.07-8.63-4.72-1.58-9.36-3.94-13.42-6.82-5.07-3.59-4.42-10.09,.75-13.71Z"/>
      <path class="cls-2" d="M271.63,154.22c-1.9,6.95-3.65,13.94-5.72,20.83-4.6,15.3-10.98,29.88-18.3,44.06-7.2,13.96-11.38,29.03-16.23,43.87-2.39,7.33-5.86,14.32-9.07,21.36-.87,1.92-2.41,3.63-3.94,5.13-5.26,5.19-11.77,3.81-14.06-3.26-1.32-4.08-2.08-8.48-2.2-12.76-.3-10.84-1.99-21.41-4.93-31.8-1.31-4.62-2.95-9.15-4.21-13.79,12.01,15.52,16.29,33.88,18.64,52.96,.52,0,1.04,0,1.56,0,2.19-5.63,4.58-11.19,6.53-16.9,3.65-10.66,6.33-21.7,10.75-32.02,4.62-10.79,10.89-20.87,16.28-31.34,7.39-14.33,14.65-28.73,21.96-43.1,.6-1.18,1.18-2.36,1.77-3.55,.39,.1,.77,.2,1.16,.3Z"/>
      <path class="cls-2" d="M187.05,121.16c2.45,4.02,2.21,8.24-1.38,10.94-3.64,2.73-7.83,4.93-12.07,6.59-3.7,1.45-7.78,2.07-11.75,2.6-2.45,.33-3.47,1.07-3.26,3.61,.09,1.07-.38,3.05-.9,3.16-1.75,.37-3.65,.15-5.47-.02-.27-.03-.64-1.01-.64-1.55-.05-4.95-.03-9.89-.03-15.47,2.4,.18,5.26-.41,6.53,.74,1.17,1.06,.62,4.01,.89,6.72,2.2-.33,4.43-.45,6.53-1.01,4.37-1.17,8.83-2.2,12.96-3.97,5.19-2.23,9.03-5.88,8.6-12.34Z"/>
      <g>
        <path class="cls-2" d="M70.49,112.16c-1.17,8.06,4.22,14.43,14.06,16.32-.16-2.91-.38-5.74-.47-8.58-.24-7.35-.22-14.65,2.05-21.8,3.92-12.35,12.7-17.83,25.25-14.57,5.71,1.48,11.28,4.11,16.42,7.07,19.97,11.5,41.55,17.24,64.37,18.57,8.65,.51,17.37,.46,26.03,.03,4.23-.21,8.59-1.38,12.53-3.01,5.15-2.13,5.61-7.98,.97-11.08-3.11-2.07-6.77-3.31-10.59-5.11,5.35,.28,10.11,1.24,13.92,4.71,4.14,3.78,3.91,9.79-.34,13.7-4.06,3.73-9.22,5.19-14.4,6.03-27.68,4.46-55.06,3.71-81.67-6.01-7.55-2.76-14.75-6.48-22.19-9.57-2.93-1.22-6.03-2.24-9.15-2.76-4.01-.67-6.33,.73-7.06,4.73-.91,5.04-1.43,10.24-1.33,15.35,.1,5.03,1.1,10.06,1.93,15.06,.16,.96,1.27,2.42,2.07,2.5,12.62,1.36,25.27,2.54,37.91,3.76,.08,0,.17-.1,.41-.23,.33-1.84,.06-4.81,1.18-5.49,1.68-1.02,4.34-.44,7.08-.56,0,5.46,.04,10.59-.07,15.72-.01,.48-1,1.22-1.63,1.34-1.2,.22-2.48,.01-3.71,.1-1.95,.14-2.44-.81-2.47-2.6-.08-4.23-.16-4.15-4.37-4.47-18.26-1.36-36.55-2.78-54.07-8.63-4.72-1.58-9.36-3.94-13.42-6.82-5.07-3.59-4.42-10.09,.75-13.71Z"/>
        <path class="cls-2" d="M187.05,121.16c2.45,4.02,2.21,8.24-1.38,10.94-3.64,2.73-7.83,4.93-12.07,6.59-3.7,1.45-7.78,2.07-11.75,2.6-2.45,.33-3.47,1.07-3.26,3.61,.09,1.07-.38,3.05-.9,3.16-1.75,.37-3.65,.15-5.47-.02-.27-.03-.64-1.01-.64-1.55-.05-4.95-.03-9.89-.03-15.47,2.4,.18,5.26-.41,6.53,.74,1.17,1.06,.62,4.01,.89,6.72,2.2-.33,4.43-.45,6.53-1.01,4.37-1.17,8.83-2.2,12.96-3.97,5.19-2.23,9.03-5.88,8.6-12.34Z"/>
      </g>
      <path class="cls-2" d="M84.54,128.49c-.16-2.91-.38-5.74-.47-8.58-.24-7.35-.22-14.65,2.05-21.8,3.92-12.35,12.7-17.83,25.25-14.57,5.71,1.48,11.28,4.11,16.42,7.07,19.97,11.5,41.55,17.24,64.37,18.57,8.65,.51,17.37,.46,26.03,.03,4.23-.21,8.59-1.38,12.53-3.01,5.15-2.13,5.61-7.98,.97-11.08-3.11-2.07-6.77-3.31-10.59-5.11,5.35,.28,10.11,1.24,13.92,4.71,4.14,3.78,3.91,9.79-.34,13.7-4.06,3.73-9.22,5.19-14.4,6.03-27.68,4.46-55.06,3.71-81.67-6.01-7.55-2.76-14.75-6.48-22.19-9.57-2.93-1.22-6.03-2.24-9.15-2.76-2.11-.35-3.75-.13-4.94,.74-1.53,1.12-1.93,2.99-2.12,4-2.15,11.27-1.1,19.06-1.1,19.06,.47,3.48,1.35,8.15,3.12,13.53"/>
    </g>
  </g>
</svg>